<svg width="16" height="17" viewBox="0 0 16 17" fill="none" xmlns="http://www.w3.org/2000/svg">
<path d="M1.93555 13.7812H5.03934C5.09208 15.2126 6.2673 16.5385 8 16.5385C9.72517 16.5385 10.9079 15.2277 10.9682 13.7812H14.0645C14.8479 13.7812 15.3301 13.3518 15.3301 12.7039C15.3301 11.8979 14.5993 11.2123 13.9138 10.5569C13.3789 10.0371 13.2508 8.99747 13.1529 7.93525C13.0474 5.09513 12.2112 3.19669 10.2525 2.48854C9.95871 1.48659 9.12249 0.725708 8 0.725708C6.87751 0.725708 6.04129 1.48659 5.75502 2.48854C3.78878 3.19669 2.9601 5.09513 2.8471 7.93525C2.74916 8.99747 2.62109 10.0371 2.08622 10.5569C1.40067 11.2123 0.669922 11.8979 0.669922 12.7039C0.669922 13.3518 1.15206 13.7812 1.93555 13.7812ZM2.50809 12.38V12.2896C2.70396 12.0711 3.1409 11.6719 3.51004 11.25C4.02986 10.6548 4.27093 9.55495 4.34626 8.12359C4.43666 5.10266 5.37081 4.08564 6.57617 3.7617C6.76451 3.70897 6.86244 3.61857 6.87751 3.41516C6.91518 2.65428 7.34459 2.142 8 2.142C8.66295 2.142 9.08482 2.65428 9.12249 3.41516C9.13756 3.61857 9.24302 3.70897 9.42383 3.7617C10.6367 4.08564 11.5633 5.10266 11.6537 8.12359C11.7366 9.55495 11.9777 10.6548 12.49 11.25C12.8591 11.6719 13.281 12.0711 13.4768 12.2896V12.38H2.50809ZM8 15.3256C7.14872 15.3256 6.5385 14.7154 6.48577 13.7812H9.52176C9.47656 14.7079 8.85882 15.3256 8 15.3256Z" fill="#666687"/>
</svg>
