<svg width="16" height="15" viewBox="0 0 16 15" fill="none" xmlns="http://www.w3.org/2000/svg">
<path d="M1.57389 6.762C2.0485 6.762 2.40257 6.41546 2.40257 5.93331V5.39844L2.24437 3.06306L3.9846 4.89369L6.13918 7.06334C6.29738 7.22907 6.50078 7.30441 6.71926 7.30441C7.23153 7.30441 7.60067 6.95787 7.60067 6.44559C7.60067 6.21205 7.51027 6.00865 7.35207 5.84291L5.18996 3.6808L3.35179 1.9481L5.70224 2.10631H6.28985C6.76446 2.10631 7.12606 1.75977 7.12606 1.27762C7.12606 0.79548 6.77199 0.441406 6.28985 0.441406H2.10876C1.24241 0.441406 0.737671 0.94615 0.737671 1.8125V5.93331C0.737671 6.40792 1.09174 6.762 1.57389 6.762ZM9.70251 14.9735H13.8836C14.7499 14.9735 15.2547 14.4688 15.2547 13.6024V9.48158C15.2547 9.00698 14.8931 8.6529 14.4185 8.6529C13.9439 8.6529 13.5898 8.99944 13.5898 9.48158V10.0165L13.748 12.3518L12.0078 10.5212L9.85318 8.35156C9.69498 8.18583 9.49158 8.11049 9.26557 8.11049C8.7533 8.11049 8.38416 8.45703 8.38416 8.96931C8.38416 9.20285 8.47456 9.41378 8.64029 9.57199L10.8024 11.7341L12.6406 13.4668L10.2901 13.3086H9.70251C9.22037 13.3086 8.8663 13.6551 8.8663 14.1373C8.8663 14.6194 9.22037 14.9735 9.70251 14.9735Z" fill="#666687"/>
</svg>
