<svg width="8" height="6" viewBox="0 0 8 6" fill="none" xmlns="http://www.w3.org/2000/svg">
<path d="M4 5.24414C4.15381 5.23975 4.29443 5.18262 4.40869 5.05957L7.74854 1.64062C7.84521 1.54395 7.89795 1.4209 7.89795 1.27588C7.89795 0.98584 7.66943 0.75293 7.37939 0.75293C7.23877 0.75293 7.10254 0.810059 7.00146 0.911133L4.00439 3.9917L0.998535 0.911133C0.897461 0.814453 0.765625 0.75293 0.620605 0.75293C0.330566 0.75293 0.102051 0.98584 0.102051 1.27588C0.102051 1.4209 0.154785 1.54395 0.251465 1.64062L3.5957 5.05957C3.71436 5.18262 3.84619 5.24414 4 5.24414Z" fill="#32324D"/>
</svg>
