<svg width="18" height="17" viewBox="0 0 18 17" fill="none" xmlns="http://www.w3.org/2000/svg">
<path d="M12.5783 16.1111C13.1885 16.1111 13.5502 15.6817 13.5502 15.0112V13.1655H13.8515C16.0287 13.1655 17.3395 11.8622 17.3395 9.61724V3.76372C17.3395 1.52628 16.0663 0.215454 13.7988 0.215454H4.19357C1.93352 0.215454 0.652832 1.52628 0.652832 3.76372V9.61724C0.652832 11.8547 1.93352 13.1655 4.19357 13.1655H8.72873L11.3127 15.4406C11.8325 15.9002 12.1489 16.1111 12.5783 16.1111ZM12.2092 14.4236L9.82108 12.0656C9.49714 11.7341 9.27867 11.6588 8.81913 11.6588H4.2463C2.83754 11.6588 2.15199 10.9431 2.15199 9.57204V3.80893C2.15199 2.43783 2.83754 1.72215 4.2463 1.72215H13.7536C15.1699 1.72215 15.8403 2.43783 15.8403 3.80893V9.57204C15.8403 10.9431 15.1699 11.6588 13.7536 11.6588H12.8269C12.3975 11.6588 12.2092 11.8321 12.2092 12.2766V14.4236Z" fill="#666687"/>
</svg>
