<svg width="17" height="14" viewBox="0 0 17 14" fill="none" xmlns="http://www.w3.org/2000/svg">
<path d="M0.822021 6.43914C0.822021 6.76559 1.07314 7.0481 1.47492 7.0481C1.66954 7.0481 1.84532 6.94137 2.00227 6.81581L8.22995 1.58632C8.40573 1.43565 8.60662 1.43565 8.7824 1.58632L15.0038 6.81581C15.1545 6.94137 15.3303 7.0481 15.5249 7.0481C15.8953 7.0481 16.1778 6.81581 16.1778 6.4517C16.1778 6.23825 16.0962 6.06874 15.9329 5.93063L14.1688 4.44904V1.83744C14.1688 1.55493 13.9868 1.37915 13.7043 1.37915H12.8379C12.5617 1.37915 12.3734 1.55493 12.3734 1.83744V2.93607L9.39763 0.437465C8.85146 -0.0208217 8.16089 -0.0208217 7.61471 0.437465L1.07314 5.93063C0.903634 6.06874 0.822021 6.25708 0.822021 6.43914ZM2.86234 12.083C2.86234 12.987 3.42735 13.5332 4.36276 13.5332H12.6433C13.5724 13.5332 14.1437 12.987 14.1437 12.083V7.31177L8.88912 2.91096C8.64429 2.69751 8.34923 2.70379 8.11067 2.91096L2.86234 7.31177V12.083ZM10.151 12.3529H6.85508V8.33507C6.85508 8.04 7.0497 7.85167 7.34476 7.85167H9.66758C9.96265 7.85167 10.151 8.04 10.151 8.33507V12.3529Z" fill="#666687"/>
</svg>
