<svg width="10" height="10" viewBox="0 0 10 10" fill="none" xmlns="http://www.w3.org/2000/svg">
<path d="M0.680191 5.68019H4.31981V9.31981C4.31981 9.68974 4.6241 10 5 10C5.3759 10 5.68019 9.68974 5.68019 9.31981V5.68019H9.31981C9.68974 5.68019 10 5.3759 10 5C10 4.6241 9.68974 4.31981 9.31981 4.31981H5.68019V0.680191C5.68019 0.310263 5.3759 0 5 0C4.6241 0 4.31981 0.310263 4.31981 0.680191V4.31981H0.680191C0.310263 4.31981 0 4.6241 0 5C0 5.3759 0.310263 5.68019 0.680191 5.68019Z" fill="white"/>
</svg>
