<svg width="16" height="12" viewBox="0 0 16 12" fill="none" xmlns="http://www.w3.org/2000/svg">
<path d="M9.14896 1.34605C9.46913 1.34605 9.72025 1.08238 9.72025 0.768485C9.72025 0.448312 9.46913 0.190918 9.14896 0.190918H1.05047C0.730294 0.190918 0.4729 0.442034 0.4729 0.768485C0.4729 1.08238 0.730294 1.34605 1.05047 1.34605H9.14896ZM9.14896 4.63567C9.46913 4.63567 9.72025 4.372 9.72025 4.05811C9.72025 3.73793 9.46913 3.48054 9.14896 3.48054H1.05047C0.730294 3.48054 0.4729 3.73165 0.4729 4.05811C0.4729 4.372 0.730294 4.63567 1.05047 4.63567H9.14896ZM14.4915 7.76207C14.9749 8.08852 15.5273 7.90646 15.5273 7.31634V4.18366C15.5273 3.57471 15 3.38637 14.4915 3.73165L12.313 5.21952C11.9301 5.47691 11.9175 6.03564 12.313 6.29932L14.4915 7.76207ZM9.14896 7.92529C9.46913 7.92529 9.72025 7.66162 9.72025 7.34773C9.72025 7.02755 9.46913 6.77016 9.14896 6.77016H1.05047C0.730294 6.77016 0.4729 7.02755 0.4729 7.34773C0.4729 7.66162 0.730294 7.92529 1.05047 7.92529H9.14896ZM5.79656 11.2149C6.11673 11.2149 6.36785 10.9512 6.36785 10.6373C6.36785 10.3172 6.11673 10.0598 5.79656 10.0598H1.05047C0.730294 10.0598 0.4729 10.3172 0.4729 10.6373C0.4729 10.9512 0.730294 11.2149 1.05047 11.2149H5.79656Z" fill="#32324D"/>
</svg>
