<svg width="10" height="9" viewBox="0 0 10 9" fill="none" xmlns="http://www.w3.org/2000/svg">
<path d="M1.10776 7.88622C0.896821 8.09716 0.886776 8.47383 1.11278 8.69481C1.33376 8.91579 1.71044 8.91077 1.92137 8.69983L4.99504 5.62115L8.07372 8.69983C8.28968 8.91579 8.66133 8.91579 8.88231 8.69481C9.09827 8.46881 9.10329 8.10218 8.88231 7.88622L5.80865 4.80754L8.88231 1.73387C9.10329 1.51791 9.10329 1.14626 8.88231 0.925281C8.65631 0.709321 8.28968 0.704299 8.07372 0.920259L4.99504 3.99894L1.92137 0.920259C1.71044 0.709321 1.32874 0.699276 1.11278 0.925281C0.891799 1.14626 0.896821 1.52294 1.10776 1.73387L4.18644 4.80754L1.10776 7.88622Z" fill="#1C1C1E"/>
</svg>
